<?xml version="1.0" encoding="utf-8"?>
<!-- Generator: Adobe Illustrator 16.0.0, SVG Export Plug-In . SVG Version: 6.00 Build 0)  -->
<!DOCTYPE svg PUBLIC "-//W3C//DTD SVG 1.1//EN" "http://www.w3.org/Graphics/SVG/1.1/DTD/svg11.dtd">
<svg version="1.1" id="Layer_1" xmlns="http://www.w3.org/2000/svg" xmlns:xlink="http://www.w3.org/1999/xlink" x="0px" y="0px"
	 width="595.279px" height="595.734px" viewBox="0 0 595.279 595.734" enable-background="new 0 0 595.279 595.734"
	 xml:space="preserve">
<g>
	<circle fill="#7AB542" cx="296.846" cy="296.846" r="296.846"/>
	<circle fill="#7BB642" cx="296.847" cy="294.81" r="292.052"/>
	<circle fill="#7CB642" cx="296.847" cy="292.773" r="287.258"/>
	<circle fill="#7DB742" cx="296.846" cy="290.738" r="282.465"/>
	<circle fill="#7EB742" cx="296.846" cy="288.7" r="277.671"/>
	<circle fill="#7FB842" cx="296.846" cy="286.662" r="272.878"/>
	<circle fill="#80B842" cx="296.847" cy="284.626" r="268.084"/>
	<circle fill="#81B942" cx="296.847" cy="282.59" r="263.291"/>
	<circle fill="#82B942" cx="296.846" cy="280.553" r="258.497"/>
	<circle fill="#82BA42" cx="296.847" cy="278.517" r="253.703"/>
	<circle fill="#83BA42" cx="296.847" cy="276.481" r="248.909"/>
	<circle fill="#84BB42" cx="296.847" cy="274.444" r="244.117"/>
	<circle fill="#85BB42" cx="296.846" cy="272.407" r="239.322"/>
	<circle fill="#86BC42" cx="296.846" cy="270.371" r="234.529"/>
	<circle fill="#87BC42" cx="296.847" cy="268.335" r="229.735"/>
	<circle fill="#88BD41" cx="296.846" cy="266.297" r="224.941"/>
	<circle fill="#89BD41" cx="296.846" cy="264.261" r="220.147"/>
	<circle fill="#8ABE41" cx="296.847" cy="262.225" r="215.354"/>
	<circle fill="#8BBE41" cx="296.847" cy="260.187" r="210.56"/>
	<circle fill="#8CBF41" cx="296.847" cy="258.151" r="205.767"/>
	<circle fill="#8CBF41" cx="296.847" cy="256.115" r="200.973"/>
	<circle fill="#8DC041" cx="296.847" cy="254.078" r="196.18"/>
	<circle fill="#8EC041" cx="296.847" cy="252.042" r="191.386"/>
	<circle fill="#8FC141" cx="296.847" cy="250.005" r="186.592"/>
	<circle fill="#90C141" cx="296.846" cy="247.968" r="181.798"/>
	<circle fill="#91C241" cx="296.847" cy="245.932" r="177.004"/>
	<circle fill="#92C241" cx="296.847" cy="243.895" r="172.212"/>
	<circle fill="#93C341" cx="296.847" cy="241.858" r="167.418"/>
	<circle fill="#94C341" cx="296.847" cy="239.822" r="162.624"/>
	<circle fill="#95C441" cx="296.847" cy="237.786" r="157.831"/>
	<circle fill="#96C441" cx="296.847" cy="235.75" r="153.037"/>
	<circle fill="#97C540" cx="296.846" cy="233.712" r="148.243"/>
	<circle fill="#97C540" cx="296.847" cy="231.676" r="143.45"/>
	<circle fill="#98C640" cx="296.847" cy="229.64" r="138.656"/>
	<circle fill="#99C740" cx="296.847" cy="227.602" r="133.863"/>
	<circle fill="#9AC740" cx="296.847" cy="225.565" r="129.068"/>
	<circle fill="#9BC840" cx="296.847" cy="223.529" r="124.275"/>
	<circle fill="#9CC940" cx="296.847" cy="221.493" r="119.481"/>
	<circle fill="#9DC940" cx="296.847" cy="219.457" r="114.687"/>
	<circle fill="#9ECA40" cx="296.847" cy="217.42" r="109.893"/>
	<circle fill="#9FCB40" cx="296.847" cy="215.383" r="105.101"/>
	<circle fill="#A0CB40" cx="296.847" cy="213.346" r="100.307"/>
	<circle fill="#A0CC40" cx="296.847" cy="211.309" r="95.513"/>
	<circle fill="#A1CD40" cx="296.847" cy="209.273" r="90.719"/>
</g>
<g>
	<g>
		<path fill="#7BA43F" d="M513.785,237.064c-0.087,21.494-22.623,34.654-41.499,23.975c-12.799-7.243-25.902-13.809-39.553-19.28
			c-27.117-10.872-55.221-18.188-83.946-23.255c-19.995-3.526-40.139-5.862-60.395-7.078c-21.059-1.265-42.134-1.414-63.226-0.322
			c-24.167,1.251-48.142,3.904-71.801,9.015c-8.731,1.886-17.359,4.263-25.993,6.571c-5.295,1.415-10.513,1.594-15.786,0.053
			c-11.544-3.378-19.5-13.721-19.843-25.831c-0.332-11.765,6.925-22.7,18.33-26.458c8.349-2.753,16.917-4.916,25.489-6.898
			c21.223-4.906,42.741-7.938,64.433-9.919c23.032-2.102,46.106-2.778,69.193-2.119c56.884,1.627,112.662,9.946,166.642,28.583
			c22.009,7.598,43.191,17.028,63.327,28.776c7.178,4.189,11.997,10.09,13.83,18.255
			C513.424,233.072,513.529,235.084,513.785,237.064z"/>
		<path fill="#7BA43F" d="M245.079,303.364c-33.906,0.142-68.638,4.345-102.562,14.412c-5.528,1.639-11.075,1.751-16.491-0.443
			c-8.814-3.571-14.549-12.402-14.239-21.751c0.325-9.748,6.27-18.24,15.667-21.109c9.564-2.92,19.272-5.451,29.035-7.62
			c24.036-5.338,48.395-8.161,73.009-9.095c52.952-2.011,104.68,4.84,155.145,21.013c25.519,8.18,49.929,18.887,72.987,32.601
			c1.146,0.683,2.285,1.379,3.423,2.074c12.024,7.346,13.46,22.136,7.725,31.561c-6.557,10.774-20.191,14.125-31.525,7.732
			c-6.395-3.607-12.713-7.364-19.25-10.696c-29.963-15.271-61.731-25.172-94.698-31.413
			C297.925,305.827,272.304,303.479,245.079,303.364z"/>
		<path fill="#7BA43F" d="M250.38,353.648c39.031,0.411,77.21,5.686,114.266,18.183c20.438,6.892,39.957,15.809,58.492,26.853
			c1.604,0.954,3.234,1.896,4.717,3.023c7.479,5.683,9.422,15.961,4.607,24.062c-4.667,7.852-14.573,11.008-23.045,7.271
			c-1.703-0.752-3.293-1.76-4.9-2.714c-31.416-18.621-65.316-30.156-101.35-35.673c-22.112-3.386-44.349-4.561-66.675-3.684
			c-28.882,1.136-57.401,5.144-85.616,11.391c-2.851,0.63-5.783,1.204-8.684,1.235c-8.737,0.095-16.11-6.103-17.645-14.502
			c-1.623-8.898,2.784-17.236,10.943-20.516c1.722-0.693,3.56-1.138,5.38-1.545c23.079-5.18,46.376-9.1,69.948-11.093
			C223.975,354.825,237.191,354.39,250.38,353.648z"/>
	</g>
</g>
<g>
	<path fill="#010101" d="M513.785,238.667c-0.087,21.494-22.623,34.655-41.499,23.976c-12.799-7.243-25.902-13.808-39.553-19.279
		c-27.117-10.872-55.221-18.188-83.946-23.255c-19.995-3.525-40.139-5.862-60.395-7.078c-21.059-1.264-42.134-1.414-63.226-0.322
		c-24.167,1.25-48.142,3.904-71.801,9.015c-8.731,1.886-17.359,4.263-25.993,6.57c-5.295,1.416-10.513,1.597-15.786,0.053
		c-11.544-3.378-19.5-13.721-19.843-25.832c-0.332-11.764,6.925-22.7,18.33-26.458c8.349-2.753,16.917-4.915,25.489-6.898
		c21.223-4.907,42.741-7.937,64.433-9.919c23.032-2.102,46.106-2.778,69.193-2.119c56.884,1.629,112.662,9.947,166.642,28.583
		c22.009,7.599,43.191,17.028,63.327,28.776c7.178,4.189,11.997,10.09,13.83,18.255
		C513.424,234.676,513.529,236.688,513.785,238.667z"/>
	<path fill="#010101" d="M245.079,304.968c-33.906,0.142-68.638,4.344-102.562,14.413c-5.528,1.639-11.075,1.75-16.491-0.445
		c-8.814-3.569-14.549-12.402-14.239-21.75c0.325-9.748,6.27-18.239,15.667-21.11c9.564-2.919,19.272-5.451,29.035-7.619
		c24.036-5.338,48.395-8.16,73.009-9.095c52.952-2.01,104.68,4.84,155.145,21.014c25.519,8.179,49.929,18.887,72.987,32.601
		c1.146,0.682,2.285,1.379,3.423,2.075c12.024,7.347,13.46,22.135,7.725,31.559c-6.557,10.775-20.191,14.126-31.525,7.732
		c-6.395-3.606-12.713-7.364-19.25-10.696c-29.963-15.271-61.731-25.172-94.698-31.413
		C297.925,307.43,272.304,305.082,245.079,304.968z"/>
	<path fill="#010101" d="M250.38,355.251c39.031,0.413,77.21,5.687,114.266,18.184c20.438,6.893,39.957,15.81,58.492,26.854
		c1.604,0.956,3.234,1.895,4.717,3.022c7.479,5.682,9.422,15.964,4.607,24.062c-4.667,7.852-14.573,11.009-23.045,7.271
		c-1.703-0.752-3.293-1.761-4.9-2.713c-31.416-18.622-65.316-30.157-101.35-35.675c-22.112-3.385-44.349-4.56-66.675-3.682
		c-28.882,1.136-57.401,5.144-85.616,11.39c-2.851,0.63-5.783,1.204-8.684,1.235c-8.737,0.095-16.11-6.102-17.645-14.502
		c-1.623-8.897,2.784-17.236,10.943-20.517c1.722-0.692,3.56-1.136,5.38-1.542c23.079-5.182,46.376-9.1,69.948-11.094
		C223.975,356.43,237.191,355.993,250.38,355.251z"/>
</g>
</svg>
